<?xml version="1.0" encoding="utf-8"?>
<!-- Generator: Adobe Illustrator 26.3.1, SVG Export Plug-In . SVG Version: 6.00 Build 0)  -->
<svg version="1.1" id="Group_1226" xmlns="http://www.w3.org/2000/svg" xmlns:xlink="http://www.w3.org/1999/xlink" x="0px" y="0px"
	 viewBox="0 0 21 21" style="enable-background:new 0 0 21 21;" xml:space="preserve">
<style type="text/css">
	.st0{fill:#FFCC00;}
</style>
<circle id="Ellipse_6" class="st0" cx="10.5" cy="10.5" r="10.5"/>
<g id="Group_3191" transform="translate(0 0)">
	<g id="Group_3190" transform="translate(0 0)">
		<path id="Path_1171" d="M9.3,9.1C9.1,8,8.7,7.2,7.3,7.2H7c0,0.6,0,1.5,0,2v3.7c0,0.8,0.3,1,1.2,1v0.1c0,0-1.4,0-1.8,0
			c-0.4,0-1.8,0-1.8,0V14c0.9-0.1,1.2-0.3,1.2-1V9.3c0-0.6,0-1.3,0-2H5.5C4,7.2,3.7,8,3.5,9.1H3.4c0-0.3,0-1,0-1.4
			c0-0.3,0-0.6,0-0.8C3.9,7,4.3,7,4.5,7c0.3,0,1,0,1.4,0h1.1C7.3,7,8,7,8.3,7c0.2,0,0.6,0,1.1-0.1c0,0.2,0,0.5,0,0.8
			c0,0.4,0,1.1,0,1.4L9.3,9.1z"/>
		<path id="Path_1172" d="M17.6,14.1c-0.6,0-1.1,0-1.7,0c-0.5,0-1.1,0-1.7,0V14c0.8-0.1,1-0.2,1-1v-2.3c-0.5,0-1.1,0-1.6,0
			c-0.5,0-1,0-1.6,0v2.3c0,0.9,0.3,1,1.1,1v0.1c-0.6,0-1.1,0-1.7,0c-0.6,0-1.1,0-1.7,0V14c0.8-0.1,1-0.2,1-1V8.1c0-0.9-0.3-1-1-1V7
			c0.6,0,1.1,0,1.7,0c0.6,0,1.1,0,1.7,0v0.1c-0.8,0-1.1,0.2-1.1,1v2h1.4c0.6,0,1.2,0,1.8,0v-2c0-0.9-0.3-1-1-1V7c0.5,0,1.1,0,1.7,0
			c0.6,0,1.1,0,1.7,0v0.1c-0.8,0-1.1,0.2-1.1,1v4.8c0,0.9,0.3,1,1.1,1L17.6,14.1z"/>
	</g>
</g>
</svg>
